<?xml version="1.0" standalone="no"?>
<!DOCTYPE svg PUBLIC "-//W3C//DTD SVG 20010904//EN"
 "http://www.w3.org/TR/2001/REC-SVG-20010904/DTD/svg10.dtd">
<svg version="1.0" xmlns="http://www.w3.org/2000/svg"
 width="1024.000000pt" height="1024.000000pt" viewBox="0 0 1024.000000 1024.000000"
 preserveAspectRatio="xMidYMid meet">

<g transform="translate(0.000000,1024.000000) scale(0.100000,-0.100000)"
fill="#000000" stroke="none">
<path d="M3660 7700 c-239 -31 -437 -184 -499 -384 -24 -78 -25 -158 -23
-1970 1 -972 5 -1419 13 -1488 10 -84 9 -110 -6 -185 -51 -258 78 -498 308
-572 l37 -13 2 -106 c1 -59 1 -128 0 -154 -1 -26 2 -93 7 -149 8 -80 14 -107
29 -122 35 -34 68 -15 181 104 57 60 109 109 115 109 6 0 63 -52 126 -116 63
-63 132 -124 152 -135 l37 -19 26 23 25 22 -10 235 c-6 129 -12 245 -14 258
-3 18 0 22 13 17 40 -17 427 -24 1297 -24 634 -1 960 3 1000 10 32 6 96 28
142 49 166 78 266 216 300 413 13 76 14 113 4 213 -11 128 -25 170 -66 201
l-24 18 30 59 c16 32 38 93 49 135 20 75 20 104 15 1621 -5 1700 1 1564 -67
1690 -31 58 -118 153 -174 190 -16 11 -66 33 -110 48 l-80 27 -1390 1 c-764 1
-1415 -2 -1445 -6z m2427 -254 c45 -94 129 -219 215 -323 69 -82 204 -189 339
-267 l84 -49 -2 -1056 -3 -1055 -69 -32 c-99 -46 -184 -110 -282 -211 -127
-132 -200 -233 -287 -398 l-32 -60 -1052 3 c-579 1 -1053 4 -1054 5 -1 1 -6
367 -11 813 -8 718 -11 814 -25 828 -14 14 -16 13 -21 -5 -3 -11 -12 -19 -20
-17 -9 2 -38 -18 -65 -44 l-49 -47 -7 -189 c-4 -104 -4 -250 0 -324 l7 -136
-124 -4 c-112 -3 -131 -7 -198 -36 -41 -17 -77 -29 -80 -26 -3 3 -7 387 -9
852 l-4 847 22 28 c47 60 165 97 309 97 l76 0 0 -316 c1 -299 2 -317 20 -330
24 -18 129 -19 142 -1 20 25 23 125 24 822 l0 710 1059 0 1058 0 39 -79z m323
73 c171 -27 285 -132 310 -286 11 -65 13 -203 4 -203 -21 0 -214 140 -272 197
-70 69 -149 181 -183 260 l-18 43 47 0 c26 0 76 -5 112 -11z m-2670 -113 l0
-113 -46 -7 c-26 -3 -73 -6 -105 -6 -56 0 -133 -20 -213 -55 l-39 -16 7 42 c9
56 59 142 100 174 67 51 179 91 264 94 l32 1 0 -114z m12 -436 l-3 -140 -92 0
c-142 0 -268 -34 -331 -89 -18 -16 -18 -14 -12 54 14 143 17 157 52 195 66 73
187 118 324 119 l65 1 -3 -140z m-2 -2389 l0 -118 -97 -6 c-115 -7 -195 -26
-275 -67 -32 -17 -60 -30 -62 -30 -9 0 8 199 20 221 15 29 138 99 194 110 19
4 77 7 128 8 l92 1 0 -119z m2978 -233 c-6 -163 -15 -200 -65 -267 -15 -19
-50 -45 -82 -59 -49 -23 -73 -27 -183 -30 -97 -3 -128 -1 -128 8 0 47 128 227
245 346 69 69 180 151 209 153 5 1 6 -66 4 -151z m-2988 -182 c0 -51 3 -107 6
-123 l6 -30 -114 -6 c-88 -4 -128 -11 -182 -31 -38 -15 -75 -31 -81 -36 -27
-22 -35 191 -9 228 35 51 160 90 287 91 l87 1 0 -94z m2959 -358 c20 -87 26
-259 11 -328 -24 -111 -91 -187 -207 -230 -53 -20 -78 -20 -1190 -26 -625 -3
-1140 -7 -1144 -9 -4 -3 -8 93 -11 213 -2 119 -7 223 -11 230 -6 9 -83 12
-326 12 -270 0 -320 -2 -331 -15 -9 -11 -11 -60 -8 -185 3 -136 1 -170 -10
-170 -7 0 -34 21 -60 48 -50 49 -68 92 -79 181 -11 93 68 211 174 261 70 33
136 40 284 28 81 -6 520 -8 1109 -6 536 1 1130 3 1320 3 330 0 347 1 400 22
30 12 58 22 61 22 3 1 11 -23 18 -51z"/>
<path d="M4144 7385 c-54 -57 -57 -117 -8 -174 52 -62 137 -61 188 0 54 64 38
152 -35 189 -61 31 -105 27 -145 -15z"/>
<path d="M5205 7107 c-26 -22 -30 -32 -33 -96 -6 -99 5 -159 33 -187 32 -32
60 -30 96 5 29 29 29 31 29 139 0 123 -10 147 -66 158 -24 5 -37 0 -59 -19z"/>
<path d="M6004 6666 c-95 -95 -101 -115 -55 -165 29 -31 54 -38 79 -22 28 17
163 145 173 162 12 24 -11 83 -39 98 -47 25 -71 14 -158 -73z"/>
<path d="M4340 6710 c-39 -39 -27 -75 53 -157 39 -41 80 -79 89 -84 25 -13 59
6 87 48 29 45 25 54 -77 147 -79 72 -115 83 -152 46z"/>
<path d="M5081 6695 c-179 -39 -315 -107 -445 -223 -94 -84 -129 -126 -189
-223 -94 -152 -130 -317 -117 -539 6 -110 13 -152 38 -225 106 -314 371 -556
677 -620 119 -25 318 -23 420 4 339 89 605 368 683 716 21 95 21 308 -1 397
-74 303 -281 551 -551 658 -158 63 -371 86 -515 55z m359 -207 c133 -34 270
-122 361 -231 67 -81 92 -125 131 -237 32 -91 33 -101 32 -240 0 -130 -3 -153
-27 -225 -43 -128 -110 -236 -198 -319 -226 -213 -540 -256 -828 -115 -110 54
-248 188 -303 294 -64 123 -91 231 -91 370 0 145 19 241 69 339 75 149 152
225 304 301 189 95 355 114 550 63z"/>
<path d="M5217 6427 c-8 -7 -42 -55 -74 -107 -33 -52 -84 -129 -114 -170 -98
-134 -141 -209 -171 -297 -26 -75 -30 -97 -25 -162 6 -105 37 -179 102 -250
99 -106 233 -156 362 -134 93 16 202 72 254 131 53 60 106 169 114 237 9 65
-8 150 -45 230 -27 59 -43 82 -168 245 -34 46 -81 115 -104 154 -65 111 -102
146 -131 123z m73 -378 c191 -256 213 -327 140 -442 -40 -63 -97 -99 -166
-105 -138 -11 -244 94 -244 244 0 51 5 69 35 118 40 66 175 246 184 245 3 0
26 -27 51 -60z"/>
<path d="M3979 5841 c-36 -36 -38 -79 -6 -115 21 -24 28 -26 127 -27 101 -1
105 0 127 25 44 51 22 117 -45 136 -20 5 -68 10 -105 10 -62 0 -71 -3 -98 -29z"/>
<path d="M6288 5854 c-55 -29 -64 -90 -20 -131 26 -25 29 -25 137 -20 103 5
110 6 132 31 32 38 31 88 -3 115 -23 18 -40 21 -123 21 -65 -1 -105 -6 -123
-16z"/>
<path d="M3912 5680 c0 -14 2 -19 5 -12 2 6 2 18 0 25 -3 6 -5 1 -5 -13z"/>
<path d="M4408 5003 c-76 -75 -88 -91 -88 -120 0 -39 37 -83 69 -83 23 0 122
80 174 141 41 48 41 66 0 111 -46 49 -58 45 -155 -49z"/>
<path d="M5947 5052 c-43 -45 -36 -71 41 -155 104 -115 133 -127 183 -78 48
49 41 71 -58 172 -98 100 -120 109 -166 61z"/>
<path d="M5201 4714 c-17 -22 -21 -43 -23 -113 -1 -47 -1 -101 0 -120 4 -75
88 -110 131 -55 18 23 21 41 21 130 0 119 -8 147 -49 169 -42 21 -56 19 -80
-11z"/>
<path d="M4169 4354 c-33 -21 -69 -74 -69 -103 0 -13 9 -39 21 -58 55 -88 177
-84 224 7 20 39 19 69 -4 106 -34 56 -119 80 -172 48z"/>
<path d="M4405 3683 c-22 -2 -45 -9 -52 -15 -18 -15 -16 -89 3 -116 15 -22 15
-22 337 -21 177 1 333 4 347 8 28 8 45 37 53 93 5 31 2 37 -16 44 -24 8 -607
14 -672 7z"/>
<path d="M5300 3681 c-18 -12 -17 -79 2 -119 l13 -27 610 4 c433 2 617 6 635
15 35 16 41 83 9 112 -20 18 -43 19 -638 22 -377 1 -622 -2 -631 -7z"/>
<path d="M4553 3423 c-51 -10 -11 -75 57 -92 124 -31 370 -37 603 -15 75 8 93
22 99 79 l3 30 -370 1 c-203 1 -380 -1 -392 -3z"/>
<path d="M5523 3423 c-25 -3 -33 -9 -33 -24 0 -33 18 -57 47 -63 126 -25 927
-26 952 -1 6 6 13 29 17 53 l7 42 -479 -2 c-264 0 -494 -3 -511 -5z"/>
<path d="M7062 7400 c6 -23 13 -39 15 -36 7 7 -7 65 -17 71 -4 3 -3 -13 2 -35z"/>
<path d="M7082 7330 c0 -14 2 -19 5 -12 2 6 2 18 0 25 -3 6 -5 1 -5 -13z"/>
<path d="M7097 5763 c2 -846 -1 -1608 -6 -1693 -6 -101 -6 -208 1 -306 9 -126
8 -172 -5 -270 -16 -112 -20 -126 -79 -242 -40 -77 -83 -145 -116 -182 -51
-57 -148 -127 -207 -148 -22 -8 -25 -11 -10 -12 15 0 11 -4 -13 -15 -24 -11
-39 -12 -53 -5 -14 8 -23 6 -39 -10 -11 -11 -28 -20 -37 -19 -16 0 -16 1 1 8
11 4 15 10 10 13 -12 7 -104 -14 -104 -24 0 -15 -58 -8 -64 8 -8 20 -52 15
-49 -6 2 -13 -113 -15 -991 -15 l-993 0 9 -25 c5 -15 5 -99 0 -200 -11 -202
-20 -230 -98 -299 -59 -51 -105 -66 -146 -45 -16 8 -34 14 -41 11 -6 -2 8 -12
31 -23 30 -14 42 -25 42 -41 0 -13 4 -23 9 -23 6 0 18 -14 28 -30 10 -18 26
-30 39 -30 11 0 29 -9 39 -20 10 -11 29 -20 42 -20 12 0 23 -4 23 -10 0 -5 9
-10 20 -10 14 0 20 -7 21 -22 0 -13 3 -17 6 -10 6 14 33 16 33 2 0 -5 18 -10
40 -10 33 0 40 3 40 20 0 17 7 20 41 20 22 0 38 4 35 9 -3 5 6 21 19 35 14 15
25 32 25 37 0 13 26 40 37 38 20 -3 25 2 14 15 -8 9 -8 21 -1 40 6 17 6 26 0
26 -14 0 -12 32 4 53 8 10 12 27 9 38 -4 12 2 26 16 38 11 10 21 26 21 35 0
11 9 16 30 16 23 0 30 5 30 19 0 16 11 19 81 25 45 4 84 4 87 1 3 -3 -9 -5
-26 -5 -18 0 -32 -3 -32 -7 0 -12 64 -10 73 2 6 7 10 6 14 -2 2 -7 13 -13 24
-13 10 0 19 -3 19 -8 0 -4 27 -9 59 -10 49 -3 61 0 70 15 8 14 13 15 19 5 6
-9 14 -6 30 13 19 21 30 25 82 25 33 0 60 4 60 10 0 6 9 10 20 10 11 0 20 -5
20 -10 0 -6 20 -8 55 -4 45 6 56 4 61 -10 4 -11 18 -16 45 -16 32 0 39 -3 39
-20 0 -19 8 -20 291 -20 261 0 293 -1 304 -16 8 -11 17 -14 26 -8 15 9 131 6
139 -5 3 -3 45 -7 95 -9 51 -1 92 -7 96 -14 4 -6 12 -7 18 -4 6 4 11 0 11 -11
0 -12 3 -14 8 -6 5 8 34 11 84 11 62 -2 75 -4 67 -15 -9 -10 -5 -11 20 -2 17
6 48 8 69 5 42 -7 38 -7 115 0 43 5 64 2 82 -10 22 -15 25 -15 25 -1 0 8 5 15
10 15 6 0 10 -3 10 -7 0 -5 38 -7 85 -5 56 2 85 0 85 -7 0 -6 9 -11 20 -11 12
0 20 7 20 16 0 12 7 14 32 8 29 -6 31 -5 19 10 -12 14 -11 16 7 16 12 0 26 -8
32 -17 9 -17 11 -17 21 0 8 14 14 16 24 7 8 -7 18 -9 24 -6 5 3 12 0 14 -6 3
-7 6 0 6 16 l1 28 20 -23 c13 -16 19 -19 20 -9 0 10 3 11 11 3 12 -12 49 -6
49 8 0 5 11 9 25 9 16 0 25 6 25 15 0 8 5 15 10 15 6 0 10 -7 10 -15 0 -13 3
-13 21 -3 17 10 23 10 26 1 6 -15 83 -18 83 -3 0 6 26 10 59 10 l59 0 6 35 c4
19 11 35 16 35 14 0 12 -14 -2 -28 -7 -7 -9 -12 -4 -12 16 0 36 29 30 44 -5
13 0 15 30 12 32 -5 37 -2 42 20 4 17 15 27 35 31 16 3 29 9 29 14 0 5 7 9 15
9 7 0 18 7 23 16 11 19 4 64 -10 64 -5 0 -9 19 -8 43 3 62 2 63 -22 37 -13
-14 -23 -19 -26 -12 -2 7 4 19 12 28 17 17 22 84 6 84 -5 0 -10 7 -10 15 0 18
16 20 23 3 3 -8 6 -6 6 5 1 11 -7 17 -21 18 -13 0 -18 3 -11 5 8 4 6 11 -8 25
-20 20 -26 49 -10 49 5 0 12 -6 15 -12 3 -7 3 -2 0 12 -8 33 -13 37 -23 21 -6
-10 -10 -10 -16 -1 -4 7 1 13 13 17 36 9 33 93 -4 116 -8 5 -11 23 -9 54 2 26
0 50 -4 53 -5 3 -11 19 -13 35 -3 17 -3 24 -1 18 4 -11 23 -19 23 -10 0 2 -9
32 -21 67 -11 35 -18 73 -15 86 4 13 0 29 -9 38 -8 8 -15 22 -15 30 0 9 -4 16
-9 16 -8 0 -20 58 -22 107 -1 13 -6 20 -12 16 -6 -3 -7 -1 -3 5 15 25 24 117
13 137 -9 17 -15 43 -19 80 -1 6 2 58 6 118 5 74 4 107 -3 107 -6 0 -11 11
-11 25 0 14 5 25 10 25 6 0 10 16 10 35 0 19 -4 35 -8 35 -4 0 -8 29 -7 64 0
35 3 62 7 60 4 -2 10 0 13 6 4 6 1 9 -7 8 -7 -2 -14 8 -16 21 -3 16 -6 20 -11
12 -4 -6 -6 14 -3 46 2 32 9 63 14 70 5 7 7 21 3 32 -3 10 -1 22 5 26 18 11
12 96 -7 111 -16 12 -16 13 -1 14 9 0 18 -6 21 -12 3 -10 10 -8 23 5 18 16 18
17 -4 17 -20 0 -22 5 -22 55 0 30 5 55 10 55 15 0 12 77 -2 83 -8 4 -4 9 10
13 21 6 23 12 19 43 -3 20 -9 49 -13 65 -5 19 -2 31 7 37 10 6 8 9 -8 9 -13 0
-23 5 -23 10 0 6 8 10 18 10 16 0 19 9 20 65 0 36 -4 65 -9 65 -5 0 -9 7 -9
15 0 8 -4 15 -9 15 -5 0 -9 20 -9 45 0 30 -7 53 -21 71 -22 28 -18 56 7 48 14
-5 14 -3 -2 10 -10 8 -15 20 -11 26 4 6 -3 22 -16 36 -21 22 -21 25 -6 42 21
23 21 27 1 47 -12 12 -13 19 -4 30 8 9 10 43 6 107 -4 51 -9 140 -12 198 -3
57 -10 108 -16 111 -6 4 -2 15 11 28 26 26 27 51 2 51 -16 0 -20 7 -19 38 0
35 -14 78 -31 92 -10 8 -33 92 -34 125 -1 17 -5 32 -9 35 -4 3 -20 36 -37 73
-17 39 -45 80 -66 98 -20 18 -34 38 -31 45 3 8 2 14 -3 14 -5 0 -14 14 -21 30
-7 17 -16 30 -21 30 -5 0 -9 5 -9 11 0 6 -15 30 -32 53 -18 22 -36 46 -40 51
-4 6 -26 33 -48 62 -22 29 -40 57 -40 62 0 5 -13 23 -30 41 -16 18 -30 37 -30
44 0 6 -9 19 -20 29 -11 9 -20 28 -20 42 0 15 -4 24 -10 20 -10 -6 -40 45 -40
68 0 13 -80 107 -92 107 -3 0 -4 -12 -2 -27 6 -42 -5 -13 -14 36 -4 24 -6
-649 -5 -1496z m793 -609 c0 -8 -5 -12 -10 -9 -6 4 -8 11 -5 16 9 14 15 11 15
-7z m-2760 -2648 c0 -2 -8 -10 -17 -17 -16 -13 -17 -12 -4 4 13 16 21 21 21
13z"/>
<path d="M7861 4501 c-7 -5 -11 -15 -9 -22 3 -10 8 -7 17 9 13 24 12 26 -8 13z"/>
<path d="M7870 4091 c0 -6 5 -13 10 -16 6 -3 10 1 10 9 0 9 -4 16 -10 16 -5 0
-10 -4 -10 -9z"/>
<path d="M7870 3660 c0 -5 5 -10 10 -10 6 0 10 5 10 10 0 6 -4 10 -10 10 -5 0
-10 -4 -10 -10z"/>
<path d="M7870 3620 c0 -5 5 -10 10 -10 6 0 10 5 10 10 0 6 -4 10 -10 10 -5 0
-10 -4 -10 -10z"/>
<path d="M3310 2954 c14 -16 26 -31 28 -33 1 -2 2 3 2 11 0 9 -12 24 -27 33
l-28 18 25 -29z"/>
<path d="M8050 2889 c0 -5 5 -7 10 -4 6 3 10 8 10 11 0 2 -4 4 -10 4 -5 0 -10
-5 -10 -11z"/>
<path d="M5968 2873 c6 -2 18 -2 25 0 6 3 1 5 -13 5 -14 0 -19 -2 -12 -5z"/>
<path d="M3797 2521 c-9 -21 -49 -68 -87 -105 -72 -70 -87 -89 -48 -62 26 18
42 21 33 6 -4 -6 -3 -10 2 -9 24 4 43 -4 76 -33 67 -62 94 -78 131 -78 24 0
36 5 36 14 0 8 15 17 34 20 26 5 35 12 39 32 3 19 -6 36 -45 77 -27 29 -69 80
-94 115 -25 34 -49 62 -52 62 -4 0 -15 -18 -25 -39z"/>
<path d="M5425 2510 c-3 -5 1 -10 10 -10 9 0 13 5 10 10 -3 6 -8 10 -10 10 -2
0 -7 -4 -10 -10z"/>
<path d="M7970 2513 c0 -5 5 -15 10 -23 8 -12 10 -11 10 8 0 12 -4 22 -10 22
-5 0 -10 -3 -10 -7z"/>
<path d="M3604 2324 c-18 -14 -18 -15 4 -4 12 6 22 13 22 15 0 8 -5 6 -26 -11z"/>
<path d="M4583 2114 c-15 -16 -16 -24 -4 -24 8 0 24 30 19 35 -2 2 -9 -3 -15
-11z"/>
</g>
</svg>
