<?xml version="1.0" standalone="no"?>
<!DOCTYPE svg PUBLIC "-//W3C//DTD SVG 20010904//EN"
 "http://www.w3.org/TR/2001/REC-SVG-20010904/DTD/svg10.dtd">
<svg version="1.0" xmlns="http://www.w3.org/2000/svg"
 width="270.000000pt" height="289.000000pt" viewBox="0 0 270.000000 289.000000"
 preserveAspectRatio="xMidYMid meet">

<g transform="translate(0.000000,289.000000) scale(0.100000,-0.100000)"
fill="#000000" stroke="none">
<path d="M1295 2686 c-31 -46 -96 -131 -144 -188 -49 -58 -110 -137 -137 -174
-26 -38 -96 -127 -154 -199 -58 -71 -126 -157 -150 -189 -25 -32 -64 -84 -87
-114 -39 -50 -43 -61 -43 -113 0 -70 -7 -89 -31 -89 -27 0 -24 -22 7 -49 l27
-23 -5 -150 c-5 -144 -4 -151 18 -184 20 -29 21 -32 4 -22 -29 18 -35 3 -11
-28 11 -15 21 -33 21 -40 0 -20 41 -86 72 -116 15 -14 28 -32 28 -40 0 -7 7 0
15 15 11 21 12 34 5 48 -18 32 -3 21 29 -23 17 -23 31 -52 31 -65 0 -27 -1
-27 -34 -12 -24 11 -29 7 -94 -62 -180 -195 -242 -268 -236 -282 15 -40 41
-21 201 144 l162 167 16 -30 c8 -17 15 -35 15 -39 0 -5 13 -31 30 -59 16 -28
30 -52 30 -54 0 -1 -13 -1 -28 2 -30 4 -62 -18 -62 -43 0 -25 35 -58 56 -51
18 5 57 57 51 67 -1 2 3 -1 9 -8 6 -7 16 -13 21 -13 5 0 17 -16 26 -36 20 -41
8 -81 -21 -69 -61 25 -82 12 -82 -51 0 -31 5 -46 18 -52 35 -18 72 12 72 59 0
29 25 47 34 23 3 -7 16 -13 28 -12 14 1 48 -16 83 -42 78 -57 85 -65 85 -90 0
-11 7 -23 16 -27 24 -9 118 20 122 38 1 8 -13 32 -33 52 l-35 36 0 190 c0 120
4 192 10 196 6 4 29 4 51 0 l41 -7 -3 -337 c-2 -185 0 -346 4 -358 10 -27 43
-31 51 -5 3 9 8 43 12 76 9 80 42 118 110 125 l49 6 0 46 c0 39 6 52 40 91 22
25 67 81 100 124 33 43 88 113 121 155 34 42 120 155 192 251 l130 174 2 110
c2 60 2 183 1 274 l-1 165 -133 166 c-72 91 -184 231 -247 310 -63 79 -152
190 -197 247 -45 57 -108 141 -139 187 -31 47 -62 85 -69 85 -8 0 -39 -38 -70
-84z m43 -571 c-2 -2 -23 -5 -48 -6 l-45 -4 -3 188 c-3 202 -4 197 57 281 l36
50 3 -253 c1 -140 1 -255 0 -256z m162 167 l0 -184 -42 7 c-24 4 -45 9 -47 11
-8 8 -14 411 -7 449 l7 36 44 -68 45 -68 0 -183z m-320 -41 l0 -160 -64 -31
c-83 -41 -179 -121 -234 -194 -163 -215 -173 -486 -28 -690 60 -83 167 -176
251 -218 33 -17 63 -36 67 -42 10 -15 10 -284 0 -290 -4 -2 -13 -2 -19 2 -5 4
-108 138 -228 297 -120 160 -228 303 -241 318 -24 28 -24 30 -24 279 l0 249
177 222 c97 122 202 254 233 293 31 38 65 82 75 97 9 15 21 27 26 27 5 0 9
-72 9 -159z m575 -91 c77 -97 182 -228 233 -291 l92 -114 0 -244 0 -245 -42
-61 c-71 -101 -397 -527 -435 -567 -14 -15 -30 -25 -34 -23 -4 3 -8 73 -8 155
l-1 150 53 26 c177 89 318 257 356 424 16 67 13 218 -4 285 -46 176 -171 326
-342 410 l-53 26 1 152 0 152 22 -29 c12 -16 85 -108 162 -206z m-230 -132
c192 -63 334 -219 379 -415 42 -185 -7 -346 -149 -488 -201 -203 -497 -218
-725 -39 -136 107 -210 254 -210 419 0 145 53 268 166 381 152 154 347 205
539 142z m-960 -418 c3 -5 1 -10 -4 -10 -6 0 -11 5 -11 10 0 6 2 10 4 10 3 0
8 -4 11 -10z m937 -910 c0 -110 1 -205 2 -212 2 -28 -22 -13 -61 39 l-43 56 0
153 c0 170 -5 159 73 163 l27 1 2 -200z m-62 -286 c0 -12 -6 -27 -14 -33 -19
-16 -28 11 -20 56 6 31 8 32 20 16 7 -10 14 -28 14 -39z"/>
<path d="M1259 1962 c-181 -48 -340 -221 -372 -406 -35 -206 97 -420 313 -506
110 -44 282 -35 389 20 157 80 261 249 261 424 0 222 -153 413 -376 470 -78
20 -131 19 -215 -2z m187 -63 c208 -38 372 -272 334 -477 -25 -138 -122 -257
-248 -305 -97 -37 -171 -44 -251 -23 -129 33 -221 104 -287 222 -39 69 -39 70
-39 179 0 106 1 112 33 172 66 120 185 213 299 233 70 11 92 11 159 -1z"/>
<path d="M1186 1768 c-9 -12 -16 -28 -16 -35 0 -7 -12 -11 -27 -10 -28 2 -28
2 -33 -78 l-5 -79 -18 27 c-9 15 -24 27 -32 27 -29 0 -26 -40 9 -119 20 -43
36 -82 36 -86 0 -3 -13 -4 -29 0 -34 7 -46 -6 -31 -35 15 -28 55 -52 98 -59
46 -8 51 -24 10 -36 -23 -7 -33 -16 -33 -30 0 -18 6 -20 75 -19 57 1 69 -1 48
-8 -27 -9 -42 -33 -32 -49 10 -16 72 -10 118 13 l44 21 60 -22 c70 -27 107
-25 107 4 0 11 -10 24 -22 30 -34 15 -27 25 9 14 50 -14 98 -11 104 6 9 21
-14 45 -42 45 -33 0 -30 15 6 29 17 6 43 16 59 22 16 6 39 22 52 35 20 21 21
27 9 35 -8 5 -27 6 -42 3 -26 -5 -27 -4 -19 23 5 15 20 46 35 68 19 28 26 49
24 74 -4 46 -23 50 -47 10 l-20 -33 -10 26 c-5 15 -6 41 -1 62 14 65 -19 131
-35 69 l-7 -28 -20 43 c-34 71 -78 80 -78 16 0 -25 -4 -34 -16 -34 -12 0 -9
-6 11 -22 l27 -21 -26 -14 c-51 -27 -21 -63 53 -63 30 0 44 -6 55 -22 20 -28
16 -31 -19 -18 -22 8 -32 8 -43 -4 -18 -18 -10 -31 38 -61 37 -23 39 -26 28
-55 l-10 -31 -19 30 c-10 17 -23 31 -29 31 -15 0 -23 -46 -16 -86 5 -22 3 -41
-5 -50 -17 -21 -29 -17 -29 10 0 13 -7 29 -15 36 -22 18 -52 -12 -69 -69 -11
-40 -16 -46 -37 -43 -34 5 -46 18 -53 56 -3 18 -12 41 -20 51 -12 16 -16 17
-30 6 -9 -7 -16 -27 -16 -44 0 -30 -1 -30 -17 -14 -13 13 -18 34 -18 80 0 69
-19 85 -43 34 -15 -30 -32 -28 -32 6 0 13 17 36 42 57 49 42 45 65 -8 57 -37
-6 -39 -5 -24 24 8 14 21 19 48 19 21 0 47 6 57 14 23 16 14 46 -14 46 -45 0
-30 32 22 45 15 4 27 11 27 16 0 11 -3 11 -34 -1 -24 -9 -25 -7 -28 32 -4 48
-20 58 -42 26z"/>
<path d="M1326 1575 c-36 -38 -40 -71 -16 -110 32 -52 69 -56 118 -12 32 29
30 86 -4 121 -34 33 -68 33 -98 1z m63 -44 c17 -11 7 -41 -13 -41 -19 0 -29
17 -22 35 6 17 15 18 35 6z"/>
<path d="M1848 2579 c-18 -10 -24 -49 -11 -63 20 -19 29 -94 18 -144 -11 -45
-10 -54 5 -67 23 -21 26 -20 55 22 32 48 31 56 -5 93 -35 36 -37 48 -10 98
l20 37 -21 18 c-24 20 -28 20 -51 6z"/>
<path d="M857 2568 c-23 -17 -13 -114 13 -128 26 -14 38 7 41 66 3 71 -14 91
-54 62z"/>
<path d="M2112 2320 c-158 -175 -181 -210 -141 -218 15 -3 67 47 204 198 38
41 89 93 113 115 41 37 44 43 33 63 -6 12 -19 22 -29 22 -10 0 -89 -79 -180
-180z"/>
<path d="M437 2473 c-18 -17 -1 -47 61 -110 37 -38 109 -115 160 -171 51 -56
100 -102 107 -102 18 0 38 37 29 53 -4 6 -78 85 -163 175 -141 148 -175 175
-194 155z"/>
<path d="M812 2398 c-18 -18 -15 -42 9 -72 28 -36 63 -32 67 7 6 54 -44 97
-76 65z"/>
<path d="M2320 2006 c-66 -13 -80 -21 -80 -46 0 -28 15 -33 86 -25 59 6 94 23
94 45 0 11 -29 40 -38 39 -4 -1 -32 -7 -62 -13z"/>
<path d="M326 1984 c-13 -35 11 -52 84 -59 77 -8 103 2 98 39 -4 25 -33 34
-114 35 -48 1 -63 -3 -68 -15z"/>
<path d="M2453 1543 c-140 -4 -161 -11 -148 -53 6 -19 14 -20 149 -20 126 0
145 2 159 18 10 10 17 21 17 25 0 9 -31 37 -38 35 -4 -1 -66 -4 -139 -5z"/>
<path d="M81 1522 c-19 -36 4 -52 77 -52 42 -1 74 -6 86 -15 10 -8 38 -17 61
-21 33 -5 52 -1 92 19 65 34 79 50 58 71 -14 13 -44 16 -190 16 -157 0 -175
-2 -184 -18z"/>
<path d="M450 1125 c-14 -7 -46 -17 -72 -20 -50 -7 -65 -26 -53 -64 9 -31 35
-33 100 -10 79 29 111 58 96 88 -13 24 -35 26 -71 6z"/>
<path d="M2237 1123 c-15 -14 -6 -53 16 -66 31 -20 109 -39 138 -35 16 2 25
11 27 27 5 32 -6 40 -79 57 -35 8 -71 17 -80 19 -8 3 -18 2 -22 -2z"/>
<path d="M1975 910 c-13 -21 9 -52 94 -132 49 -46 115 -113 147 -150 32 -38
65 -68 74 -68 20 0 40 19 40 38 0 13 -149 173 -255 274 -48 46 -86 60 -100 38z"/>
<path d="M1866 707 c-37 -27 2 -96 41 -71 32 20 39 41 19 63 -22 24 -35 26
-60 8z"/>
<path d="M1836 554 c-29 -29 -11 -104 25 -104 14 0 49 38 49 54 0 56 -41 84
-74 50z"/>
</g>
</svg>
