<?xml version="1.0" standalone="no"?>
<!DOCTYPE svg PUBLIC "-//W3C//DTD SVG 20010904//EN"
 "http://www.w3.org/TR/2001/REC-SVG-20010904/DTD/svg10.dtd">
<svg version="1.0" xmlns="http://www.w3.org/2000/svg"
 width="1024.000000pt" height="1024.000000pt" viewBox="0 0 1024.000000 1024.000000"
 preserveAspectRatio="xMidYMid meet">

<g transform="translate(0.000000,1024.000000) scale(0.100000,-0.100000)"
fill="#000000" stroke="none">
<path d="M7415 9036 c-11 -8 -21 -31 -24 -57 -6 -41 -8 -44 -51 -56 -53 -15
-70 -35 -70 -79 0 -38 5 -42 67 -57 45 -12 47 -14 59 -62 16 -60 34 -75 90
-75 50 0 57 8 64 74 5 53 14 62 72 71 49 8 64 34 49 86 -11 37 -45 59 -92 59
-14 0 -20 10 -25 40 -4 25 -15 47 -28 55 -26 19 -86 19 -111 1z m85 -146 c26
-48 -9 -108 -47 -84 -22 13 -29 70 -12 90 17 20 47 17 59 -6z"/>
<path d="M6939 8801 c-16 -16 -29 -39 -29 -51 0 -31 28 -74 59 -93 34 -20 67
-6 93 40 17 28 18 35 5 66 -16 38 -51 67 -80 67 -10 0 -32 -13 -48 -29z"/>
<path d="M7286 8469 c-31 -37 -33 -63 -6 -106 24 -40 61 -51 96 -29 50 34 57
94 15 137 -39 38 -72 38 -105 -2z"/>
<path d="M6299 8451 c-35 -35 -38 -80 -9 -121 38 -53 81 -48 119 14 29 46 27
62 -13 102 -42 42 -59 42 -97 5z"/>
<path d="M6842 8414 c-19 -13 -22 -24 -22 -75 l0 -59 -63 0 c-71 0 -97 -17
-97 -61 0 -42 22 -61 76 -66 97 -9 94 -6 94 -72 0 -66 10 -79 62 -87 52 -8 62
6 63 83 l0 68 67 5 c36 3 69 8 73 11 3 4 8 22 12 42 8 49 -21 77 -81 77 -57 0
-76 19 -76 75 0 26 -6 50 -16 59 -20 20 -63 20 -92 0z"/>
<path d="M4905 8329 c-77 -4 -178 -13 -225 -19 -322 -44 -757 -185 -1050 -342
-312 -166 -659 -465 -873 -750 -337 -450 -518 -871 -599 -1388 -30 -194 -33
-628 -5 -814 23 -150 84 -391 131 -521 44 -118 169 -379 230 -480 62 -103 62
-101 11 -131 -49 -28 -105 -87 -105 -109 0 -8 -28 -29 -62 -46 -67 -34 -152
-115 -192 -184 -52 -88 -72 -242 -46 -348 10 -37 9 -57 -3 -105 -18 -70 -10
-127 27 -200 34 -68 79 -110 156 -146 l65 -31 203 3 c171 2 213 6 270 24 181
55 252 124 321 313 22 59 44 112 49 117 5 5 29 -5 58 -25 220 -149 271 -181
433 -262 280 -140 530 -228 791 -280 260 -51 342 -59 590 -59 243 0 415 18
647 70 548 122 1081 418 1469 817 216 222 377 450 533 757 101 198 160 352
210 543 74 281 85 374 85 692 0 313 -7 370 -83 680 -77 312 -190 571 -380 869
-152 239 -306 425 -491 595 -61 57 -89 78 -67 52 39 -46 46 -63 25 -59 -7 2
-14 -8 -16 -21 -3 -19 -6 -21 -13 -10 -7 11 -9 8 -9 -9 0 -13 -4 -20 -10 -17
-16 10 -12 -1 22 -68 17 -34 39 -91 49 -127 18 -65 20 -67 23 -20 0 14 5 28 9
31 5 3 1 13 -8 23 -13 13 -14 16 -2 16 21 0 167 -170 167 -194 0 -6 -5 -3 -11
7 -5 9 -15 17 -20 17 -6 0 -7 -5 -4 -10 5 -7 -13 -10 -52 -8 -48 3 -58 7 -61
23 -2 11 -9 25 -14 30 -7 7 -9 2 -4 -15 15 -61 17 -279 3 -390 -30 -246 -181
-513 -382 -677 -93 -75 -315 -188 -435 -222 -164 -45 -361 -49 -545 -11 -192
41 -305 90 -305 134 0 6 27 35 59 64 33 29 88 87 122 130 66 81 221 250 469
512 324 342 374 398 426 477 69 104 147 282 132 300 -18 22 -72 15 -164 -21
-133 -51 -252 -119 -314 -178 -30 -29 -164 -168 -297 -308 -133 -140 -324
-337 -425 -436 -101 -100 -201 -205 -223 -233 -31 -40 -44 -50 -60 -45 -11 4
-60 9 -110 12 l-90 6 60 6 c33 3 75 3 92 -1 31 -6 32 -6 21 15 -6 11 -31 49
-55 83 -115 162 -184 409 -170 612 27 401 289 776 637 911 30 12 62 28 70 36
13 13 9 13 -22 -1 -21 -8 -38 -13 -38 -10 0 3 11 10 25 15 24 9 37 50 15 50
-5 0 -10 9 -10 20 0 13 7 20 20 20 28 0 25 20 -2 21 l-23 0 23 9 c12 5 22 12
22 16 0 3 -8 3 -17 0 -9 -4 -20 -2 -23 5 -4 6 -24 11 -44 12 -20 1 -36 5 -36
9 0 10 -6 11 108 -7 115 -18 192 -36 187 -44 -1 -3 8 -7 21 -7 14 -1 39 -8 55
-15 24 -10 28 -14 16 -21 -9 -4 -26 -4 -41 2 -19 7 -24 6 -20 -4 3 -9 31 -13
92 -13 60 -1 117 -9 185 -27 128 -34 141 -34 133 2 -21 81 -20 85 5 80 13 -3
33 -9 44 -12 44 -15 -60 37 -128 64 -183 73 -447 137 -657 159 -137 15 -367
31 -405 29 -16 0 -93 -5 -170 -9z m-345 -601 c42 -46 8 -138 -51 -138 -34 0
-79 48 -79 84 0 66 85 102 130 54z m-364 -143 c15 -23 15 -27 0 -50 -19 -29
-51 -32 -78 -8 -24 22 -23 49 4 67 32 23 55 20 74 -9z m-339 -95 c8 -15 13
-66 13 -130 0 -89 4 -113 24 -155 13 -27 36 -61 50 -75 25 -23 37 -25 145 -30
125 -5 151 -15 151 -54 0 -12 -6 -31 -14 -42 -12 -16 -31 -20 -133 -24 -136
-6 -160 -16 -193 -80 -15 -30 -22 -68 -27 -153 -3 -61 -10 -120 -15 -129 -9
-19 -53 -24 -76 -9 -20 12 -31 76 -32 177 0 78 -3 96 -23 124 -38 57 -76 72
-199 80 -92 5 -113 9 -124 25 -8 10 -14 26 -14 35 0 35 32 47 144 54 130 7
161 21 194 87 19 38 24 69 29 170 4 92 10 129 21 142 22 25 63 18 79 -13z
m2522 -197 c-49 -71 -183 -223 -405 -458 -110 -116 -289 -309 -398 -430 -110
-121 -213 -233 -229 -248 l-30 -29 -33 39 c-18 21 -33 40 -33 43 0 34 967
1027 1063 1091 32 21 67 39 78 39 17 0 16 -5 -13 -47z m-3066 -684 c30 -16 37
-28 37 -66 0 -61 -72 -84 -115 -37 -31 33 -32 61 -3 91 24 25 48 29 81 12z
m1111 -76 c22 -22 26 -33 22 -58 -13 -67 -86 -87 -130 -34 -31 37 -33 58 -5
93 28 36 77 36 113 -1z m2919 -178 c19 -40 48 -60 99 -69 64 -11 65 -81 2
-100 -70 -21 -84 -30 -103 -62 -24 -40 -61 -47 -61 -11 0 42 -27 67 -72 67
-47 0 -78 22 -78 55 0 27 16 41 53 49 15 3 38 8 52 11 20 4 27 15 36 50 15 58
47 63 72 10z m-4426 -61 c46 -27 62 -59 44 -92 -15 -28 -94 -72 -128 -72 -37
0 -127 59 -131 86 -4 27 31 66 83 94 46 24 69 21 132 -16z m2199 -142 c94 -48
184 -174 184 -257 0 -48 -17 -92 -44 -114 -18 -15 -39 -1 -197 134 -131 112
-209 186 -209 199 0 13 48 44 88 57 42 13 134 3 178 -19z m-1410 -166 c24 -24
34 -43 34 -65 0 -46 -24 -86 -61 -101 -39 -17 -72 -2 -106 49 -27 40 -29 78
-5 107 43 53 91 57 138 10z m1079 4 c64 -37 196 -155 277 -247 35 -39 84 -90
110 -113 80 -70 74 -147 -12 -170 -49 -13 -65 -6 -140 66 -30 28 -96 85 -147
125 -187 151 -251 209 -257 235 -10 40 4 93 31 114 36 28 80 25 138 -10z m672
-117 c-2 -21 -4 -6 -4 32 0 39 2 55 4 38 2 -18 2 -50 0 -70z m1317 5 c9 -15
16 -70 20 -162 8 -161 18 -193 77 -235 41 -30 44 -31 162 -31 134 0 157 -9
157 -61 0 -50 -21 -59 -133 -59 -131 -1 -172 -11 -214 -52 -40 -40 -52 -102
-53 -257 0 -102 -12 -131 -54 -131 -55 1 -66 34 -66 193 0 123 -2 137 -23 167
-42 63 -75 74 -232 80 l-139 5 -10 33 c-7 26 -5 36 9 52 15 17 31 20 99 20
162 0 230 23 272 93 16 26 20 57 24 178 4 126 8 150 24 168 25 28 62 27 80 -1z
m-1319 -67 c-8 -45 -105 -199 -105 -168 0 10 18 42 40 71 22 29 40 55 40 59 0
11 19 57 24 57 3 0 3 -8 1 -19z m2114 -25 c29 -31 25 -73 -11 -99 -34 -25 -68
-17 -91 23 -43 72 45 137 102 76z m-2916 -110 c40 -30 121 -104 182 -165 l109
-111 -89 -93 c-50 -52 -93 -95 -97 -96 -4 0 -42 32 -85 73 -43 41 -113 101
-155 133 -42 33 -87 71 -98 86 l-21 27 29 43 c30 42 137 157 148 157 3 0 38
-24 77 -54z m-1709 -38 c9 -12 16 -41 16 -63 0 -48 25 -102 60 -127 14 -10 48
-24 75 -31 50 -12 50 -12 50 -52 0 -39 -1 -40 -45 -53 -25 -7 -56 -16 -69 -20
-36 -11 -62 -53 -69 -113 -7 -53 -7 -54 -47 -60 -22 -4 -43 -5 -47 -2 -5 2 -8
27 -8 54 0 94 -39 129 -141 129 -41 0 -51 4 -65 25 -10 15 -14 34 -10 50 6 25
14 28 124 55 59 15 82 53 82 141 0 37 5 70 12 77 20 20 65 14 82 -10z m1455
-257 c77 -59 271 -259 271 -279 0 -13 -204 -239 -265 -294 -29 -26 -52 -37
-83 -41 -23 -2 -44 -1 -47 3 -2 4 -39 -10 -82 -31 -62 -31 -94 -55 -155 -120
l-77 -82 -78 63 c-125 103 -213 181 -213 191 0 6 57 67 128 138 70 70 210 214
311 319 101 106 190 192 198 192 8 0 49 -27 92 -59z m-861 37 c21 -21 15 -67
-12 -79 -48 -22 -82 22 -56 72 12 21 50 25 68 7z m2173 -245 c35 -21 54 -70
40 -104 -12 -32 -31 -47 -69 -55 -26 -5 -36 -1 -62 24 -39 39 -41 92 -5 127
28 29 56 31 96 8z m1799 -173 c25 -25 26 -81 3 -103 -34 -30 -67 -31 -101 -2
-36 30 -42 67 -16 103 20 29 85 31 114 2z m-4716 -211 c32 -25 34 -66 5 -103
-25 -32 -55 -33 -86 -4 -29 27 -31 80 -3 108 26 26 51 25 84 -1z m3469 -111
c9 -11 17 -31 17 -45 0 -28 -50 -83 -75 -83 -21 0 -75 54 -75 75 0 26 28 73
47 78 30 8 67 -3 86 -25z m-2639 -2 c72 -54 232 -199 240 -217 5 -10 12 -19
17 -19 4 0 25 -15 46 -32 21 -18 49 -40 62 -48 l23 -16 -27 -32 c-15 -18 -31
-32 -36 -32 -5 0 -26 18 -46 41 -21 23 -60 56 -88 74 -65 42 -211 171 -253
224 l-33 42 23 19 c30 25 35 25 72 -4z m1391 -21 c27 -26 32 -70 12 -96 -18
-23 -56 -41 -70 -33 -62 35 -77 97 -31 133 35 27 59 26 89 -4z m-775 -45 c-12
-16 -54 -64 -93 -106 l-72 -75 -54 54 -53 55 83 39 c63 30 93 39 119 36 22 -3
43 1 55 11 32 24 38 19 15 -14z m1287 -2 c4 -7 10 -86 13 -175 l5 -161 40 -59
c58 -84 87 -96 258 -101 126 -4 139 -6 152 -26 8 -11 15 -28 15 -38 0 -37 -24
-45 -165 -51 -157 -8 -206 -24 -249 -80 -39 -52 -47 -87 -50 -239 -4 -150 -10
-168 -56 -168 -49 0 -55 19 -60 195 -5 136 -9 167 -25 191 -46 72 -99 91 -265
100 -144 7 -170 16 -170 59 0 46 29 57 157 60 169 4 228 29 276 120 18 34 22
64 26 196 4 111 10 161 20 173 16 19 66 21 78 4z m-1988 -120 c47 -40 139
-125 204 -189 l118 -115 -73 -81 c-40 -45 -124 -137 -187 -205 -181 -195 -214
-231 -266 -297 -46 -56 -75 -76 -75 -51 0 5 -33 35 -72 66 -69 55 -312 258
-351 294 -17 15 -10 24 128 161 81 79 219 222 307 317 88 94 165 172 171 172
5 0 48 -33 96 -72z m3500 -84 c35 -29 39 -59 16 -103 -24 -48 -81 -56 -120
-16 -35 34 -33 78 4 116 36 36 60 37 100 3z m-2381 -56 c17 -17 15 -68 -5 -90
-32 -35 -93 -10 -93 39 0 47 67 82 98 51z m-289 -368 c20 0 31 -60 31 -165 l0
-113 38 -49 c58 -72 57 -72 178 -75 l109 -3 3 -43 c5 -66 -5 -72 -118 -72 -92
0 -99 -1 -139 -31 -56 -40 -71 -79 -71 -186 0 -97 -14 -133 -52 -133 -46 0
-58 26 -58 127 0 106 -12 143 -59 188 -31 29 -36 30 -139 33 -120 4 -142 14
-142 67 0 49 13 55 126 55 116 0 135 9 181 87 24 42 26 54 27 165 1 114 2 121
25 139 13 11 31 17 38 14 8 -3 18 -5 22 -5z m2205 -151 c50 -40 23 -129 -39
-129 -32 0 -75 42 -75 72 1 37 38 74 76 77 6 1 23 -8 38 -20z m-3771 -33 c71
-47 158 -125 253 -226 101 -106 114 -126 114 -168 0 -39 -30 -172 -39 -172 -3
0 -18 19 -33 43 -31 49 -204 227 -304 313 -38 33 -111 86 -161 118 -51 32 -90
62 -88 66 3 5 18 11 33 15 16 3 55 17 88 30 67 28 66 28 137 -19z m-243 -184
c79 -34 283 -210 315 -272 16 -31 8 -76 -26 -141 -72 -143 -278 -140 -348 4
-26 54 -26 92 -1 164 33 93 24 111 -44 92 -83 -23 -120 -155 -76 -271 23 -62
133 -178 190 -202 57 -23 125 -29 182 -16 43 11 64 24 119 79 57 56 70 76 89
134 l22 68 24 -51 c13 -29 24 -63 24 -76 0 -38 -40 -133 -71 -168 -43 -50
-139 -89 -231 -94 -68 -4 -80 -2 -110 19 -18 13 -35 24 -38 25 -57 10 -184
107 -264 200 -77 91 -92 133 -82 242 11 131 77 231 182 272 54 22 78 21 144
-8z m3544 -154 c55 -50 25 -128 -48 -128 -39 0 -76 37 -76 75 0 12 9 34 21 49
26 33 69 34 103 4z m-1096 -218 c43 -40 19 -110 -43 -126 -57 -14 -97 70 -59
124 20 29 72 30 102 2z m-2708 -270 c30 -26 76 -61 101 -78 25 -17 52 -38 60
-48 13 -16 11 -17 -36 -10 -86 13 -169 72 -194 139 -26 69 -16 69 69 -3z"/>
<path d="M4270 5130 c-30 -30 -27 -78 6 -90 41 -16 69 -12 92 13 28 30 28 62
0 81 -31 22 -74 20 -98 -4z"/>
<path d="M4048 5013 c-18 -5 -38 -52 -38 -89 0 -36 56 -94 91 -94 74 0 134 53
110 98 -8 16 -23 22 -59 24 -43 3 -47 5 -52 33 -5 29 -19 37 -52 28z"/>
<path d="M3466 4344 c-23 -23 -21 -91 3 -104 34 -18 78 -12 95 12 21 30 20 50
-5 82 -24 30 -69 35 -93 10z"/>
<path d="M3179 4180 c-52 -27 -125 -114 -139 -166 -7 -24 -10 -71 -8 -105 4
-58 7 -63 51 -104 43 -39 47 -47 47 -89 0 -41 3 -46 26 -52 32 -8 124 11 182
38 71 34 156 146 176 233 4 17 9 39 12 50 4 15 3 17 -5 6 -7 -11 -11 -6 -16
22 -12 60 -58 123 -117 156 -65 38 -150 42 -209 11z m126 -90 c8 0 30 -14 49
-31 63 -55 58 -149 -10 -209 -42 -37 -65 -47 -119 -51 -37 -4 -39 -2 -46 28
-5 26 -2 36 18 55 14 13 28 22 31 20 4 -2 8 1 10 7 6 17 -34 13 -48 -4 -20
-24 -37 -18 -49 16 -17 51 -13 82 17 117 27 33 96 65 120 57 8 -3 20 -5 27 -5z"/>
<path d="M3640 4170 c-6 -11 -8 -20 -6 -20 3 0 10 9 16 20 6 11 8 20 6 20 -3
0 -10 -9 -16 -20z"/>
<path d="M5778 8033 c7 -3 16 -2 19 1 4 3 -2 6 -13 5 -11 0 -14 -3 -6 -6z"/>
<path d="M7246 7968 c-22 -31 -20 -90 4 -120 28 -36 72 -53 100 -38 31 17 64
94 50 119 -31 60 -124 83 -154 39z"/>
<path d="M5953 7618 c-37 -40 -37 -63 -2 -102 38 -43 69 -46 98 -10 27 34 27
68 0 105 -25 36 -67 39 -96 7z"/>
<path d="M5583 7525 c-15 -11 -23 -30 -28 -73 l-6 -57 -40 3 c-62 6 -86 -4
-92 -38 -4 -16 -2 -41 3 -55 9 -23 15 -25 69 -25 66 0 71 -5 71 -70 0 -46 21
-70 60 -70 41 0 61 32 53 87 l-6 43 60 0 c67 0 93 17 93 61 0 43 -22 61 -81
67 -30 2 -57 10 -61 16 -4 6 -8 31 -8 57 0 25 -5 50 -12 57 -16 16 -49 15 -75
-3z"/>
<path d="M6571 7053 c-40 -50 -39 -73 5 -110 47 -40 63 -41 103 -7 23 19 31
34 31 58 0 76 -95 116 -139 59z"/>
<path d="M5335 7045 c-31 -30 -32 -62 -2 -106 31 -46 69 -50 108 -13 39 37 38
72 -4 112 -39 38 -69 41 -102 7z"/>
<path d="M6350 6861 c-23 -6 -25 -12 -28 -74 -2 -42 -8 -69 -15 -72 -7 -2 -43
-7 -81 -10 l-68 -7 5 -39 c7 -56 19 -66 87 -73 59 -7 59 -7 65 -44 13 -88 29
-103 91 -88 21 6 24 12 24 49 0 80 5 86 73 89 55 3 63 6 76 30 12 20 13 34 5
55 -9 26 -13 28 -77 31 l-67 3 0 58 c0 80 -28 109 -90 92z"/>
<path d="M5972 6434 c-49 -34 -45 -97 8 -134 39 -28 53 -25 89 15 40 45 40 76
0 109 -35 30 -65 33 -97 10z"/>
<path d="M3677 1571 c-350 -6 -369 -7 -383 -25 -20 -28 -18 -34 19 -56 23 -15
48 -20 92 -20 33 1 265 -4 515 -9 250 -5 1004 -10 1674 -10 l1220 -1 43 21
c51 25 54 50 11 82 -27 20 -42 20 -1425 22 -769 1 -1564 -1 -1766 -4z"/>
<path d="M7058 1564 c-84 -45 -33 -130 63 -104 68 19 84 78 28 107 -31 16 -58
16 -91 -3z"/>
<path d="M2995 1563 c-29 -7 -45 -23 -45 -45 0 -46 145 -64 190 -23 25 23 25
30 0 55 -15 15 -32 20 -72 19 -29 -1 -62 -4 -73 -6z"/>
<path d="M10 25 c0 -10 9 -15 28 -14 17 1 20 3 9 6 -9 2 -15 9 -12 14 4 5 -1
9 -9 9 -9 0 -16 -7 -16 -15z"/>
</g>
</svg>
