<?xml version="1.0" standalone="no"?>
<!DOCTYPE svg PUBLIC "-//W3C//DTD SVG 20010904//EN"
 "http://www.w3.org/TR/2001/REC-SVG-20010904/DTD/svg10.dtd">
<svg version="1.0" xmlns="http://www.w3.org/2000/svg"
 width="374.000000pt" height="328.000000pt" viewBox="0 0 374.000000 328.000000"
 preserveAspectRatio="xMidYMid meet">

<g transform="translate(0.000000,328.000000) scale(0.100000,-0.100000)"
fill="#000000" stroke="none">
<path d="M545 3263 c-103 -42 -211 -133 -278 -235 -44 -67 -63 -108 -88 -198
-18 -62 -19 -120 -18 -1185 0 -1085 1 -1122 20 -1190 11 -38 21 -77 22 -85 2
-8 9 -25 15 -37 7 -13 9 -23 5 -23 -4 0 -3 -4 2 -8 31 -22 63 -80 59 -108 -2
-16 -1 -21 2 -12 7 22 24 24 24 2 0 -8 5 -12 10 -9 6 4 10 3 9 -2 -4 -21 2
-34 13 -30 7 2 28 -9 47 -26 19 -16 69 -46 112 -67 43 -21 75 -40 72 -44 -3
-3 565 -5 1263 -3 l1269 2 80 38 c149 71 234 157 305 308 62 134 61 102 58
1329 l-3 1115 -27 80 c-58 169 -166 297 -310 368 l-77 37 -1273 -1 c-1150 0
-1277 -2 -1313 -16z m2548 -86 c117 -40 231 -136 280 -233 14 -27 35 -80 48
-119 23 -69 24 -78 27 -553 l3 -482 -263 1 c-145 0 -257 3 -250 6 16 6 17 184
0 201 -13 13 -58 17 -59 5 -3 -39 -5 -163 -1 -180 2 -12 11 -24 20 -26 10 -3
-35 -5 -99 -6 -64 0 -130 -4 -147 -7 -27 -6 -29 -8 -17 -21 8 -8 15 -27 15
-43 0 -26 4 -30 37 -36 21 -4 201 -4 400 -1 l363 6 0 -537 c0 -326 -4 -562
-11 -601 -22 -141 -117 -301 -216 -368 -26 -18 -75 -43 -108 -55 l-60 -22
-1158 -4 c-786 -2 -1176 0 -1215 8 -146 27 -289 134 -350 262 -62 129 -62 131
-62 750 l0 564 511 1 511 2 -6 -22 c-4 -12 -22 -83 -42 -157 -19 -74 -39 -148
-44 -165 l-10 -30 -236 3 c-211 2 -239 1 -255 -14 -11 -9 -19 -27 -19 -39 0
-46 15 -48 255 -43 124 3 225 5 225 4 0 -10 -35 -103 -41 -110 -4 -5 -61 -10
-125 -13 -123 -4 -134 -8 -134 -50 0 -35 32 -45 136 -41 52 2 94 1 94 -2 0 -3
-9 -38 -20 -78 -30 -106 -28 -116 28 -153 90 -62 201 -160 252 -224 35 -44 70
-74 113 -98 106 -60 359 -187 371 -187 6 0 24 14 40 30 37 40 61 52 192 95
166 56 219 86 258 148 19 29 63 80 98 112 l63 59 8 -80 c4 -43 6 -136 4 -207
-4 -139 4 -167 47 -167 48 0 51 15 47 269 l-3 236 25 22 c28 23 28 10 -5 158
-9 45 -13 174 -13 505 0 434 0 445 20 461 26 22 65 98 72 145 6 36 6 36 47 30
46 -7 70 5 81 41 4 15 0 28 -14 42 -17 17 -34 21 -91 21 -64 0 -86 9 -60 25 6
4 19 24 31 46 22 43 22 38 -22 419 -13 111 -60 335 -78 368 -15 29 -46 28 -66
-2 -9 -13 -27 -81 -40 -151 -22 -112 -35 -161 -35 -128 0 12 -44 33 -70 33
-31 0 -24 -34 11 -64 17 -14 38 -26 46 -26 14 0 15 -11 9 -72 -3 -40 -11 -133
-17 -206 l-11 -133 31 -48 c17 -26 31 -51 31 -54 0 -4 -36 -7 -80 -7 -74 0
-81 -2 -96 -25 -15 -23 -15 -27 1 -51 15 -23 22 -25 68 -22 l52 3 6 -40 c6
-44 39 -114 63 -134 11 -10 16 -31 16 -73 l0 -59 -76 3 -77 3 -13 50 c-34 124
-46 155 -78 197 -21 27 -56 56 -90 74 -31 16 -55 34 -54 41 4 14 102 142 176
227 28 33 52 66 52 72 0 31 -29 36 -160 29 l-130 -7 0 40 c0 77 -38 135 -114
174 -57 29 -149 22 -204 -16 -54 -37 -72 -66 -86 -139 l-11 -59 -135 3 c-134
4 -135 4 -138 -19 -2 -14 12 -43 40 -81 160 -216 171 -233 157 -242 -8 -5 -19
-9 -26 -9 -20 0 -123 -101 -143 -139 -10 -20 -28 -70 -41 -111 -12 -41 -27
-78 -33 -82 -6 -4 -244 -8 -528 -8 l-518 0 0 483 c0 430 2 490 18 553 45 177
194 319 376 359 49 11 284 13 1221 12 1062 -2 1164 -4 1208 -20z m-529 -485
c3 -43 11 -143 17 -224 10 -133 9 -152 -7 -193 l-17 -46 -28 50 -28 49 14 188
c8 104 17 216 21 249 7 52 8 56 15 32 4 -16 10 -63 13 -105z m-668 -103 c44
-27 54 -47 54 -104 0 -81 -52 -165 -103 -165 -49 0 -96 83 -98 174 -2 64 1 70
49 96 47 25 57 24 98 -1z m-274 -215 c31 -5 42 -14 62 -48 13 -22 42 -58 65
-79 46 -42 54 -79 21 -97 -17 -9 -26 -7 -48 12 -32 26 -185 195 -190 209 -4
10 36 12 90 3z m491 -56 c-33 -35 -78 -83 -99 -108 -65 -74 -74 -80 -101 -63
-39 26 -29 57 42 128 36 35 65 71 65 79 0 20 15 24 89 25 l63 1 -59 -62z m472
-229 c18 -19 18 -22 3 -47 -24 -40 -45 -39 -64 2 -14 29 -15 38 -4 51 17 21
43 19 65 -6z m-705 -39 c11 -11 20 -31 20 -45 0 -29 -32 -65 -58 -65 -24 0
-48 27 -57 62 -5 19 -1 32 14 47 26 26 55 27 81 1z m232 -11 c40 -20 70 -53
86 -96 16 -41 124 -423 129 -458 7 -39 12 -44 -152 170 -76 99 -154 197 -173
219 -26 29 -32 43 -26 60 4 11 8 43 9 70 2 28 8 52 16 57 18 11 63 2 111 -22z
m-431 11 c5 0 9 -16 9 -35 0 -19 8 -50 17 -69 l16 -35 -44 -48 c-24 -26 -111
-133 -194 -236 -82 -104 -151 -184 -153 -178 -2 6 10 57 26 114 17 56 47 163
67 237 40 147 68 200 117 227 37 19 96 33 116 27 8 -2 18 -4 23 -4z m282 -288
l65 -79 36 -239 c20 -131 45 -282 56 -334 10 -52 26 -142 36 -200 l17 -105
-42 -45 c-24 -25 -83 -91 -133 -147 -50 -57 -94 -103 -99 -103 -5 0 -9 289 -9
665 0 366 2 665 3 665 2 0 33 -35 70 -78z m-173 -604 c0 -561 -2 -670 -13
-658 -8 8 -48 56 -89 105 -42 50 -98 114 -125 144 l-48 54 27 156 c31 178 84
532 94 634 5 45 14 78 28 97 42 58 111 139 119 139 4 1 7 -301 7 -671z m710
342 c0 -115 -4 -200 -9 -200 -12 0 -21 30 -65 205 -20 77 -39 150 -42 162 -6
23 7 29 79 32 l37 1 0 -200z m-995 -101 c-30 -209 -36 -242 -65 -407 -17 -92
-30 -192 -29 -222 l3 -55 -36 1 c-27 1 -53 15 -114 62 -43 34 -85 70 -91 82
-15 23 -6 81 35 207 24 76 37 97 155 245 71 90 134 171 140 180 6 9 13 16 14
14 2 -1 -4 -50 -12 -107z m696 54 c52 -71 200 -244 252 -294 35 -34 37 -39 38
-105 1 -38 3 -96 5 -129 2 -33 1 -69 -1 -81 -5 -23 -212 -190 -223 -179 -4 4
-6 45 -4 92 3 81 -17 212 -97 656 -10 53 -17 97 -15 97 2 0 22 -26 45 -57z
m-600 -910 c20 -37 4 -37 -56 -2 -57 35 -75 66 -75 129 1 22 7 18 60 -40 32
-36 64 -75 71 -87z m595 53 c-3 -14 -33 -37 -81 -65 -41 -23 -89 -54 -106 -68
-64 -54 -34 -12 71 97 60 63 110 120 111 125 1 6 4 -8 6 -29 3 -22 2 -49 -1
-60z"/>
<path d="M1802 3078 c-13 -17 -26 -149 -17 -187 8 -35 41 -49 74 -31 19 10 21
19 21 108 0 63 -4 102 -12 110 -16 16 -53 15 -66 0z"/>
<path d="M1367 2958 c-22 -12 -21 -29 2 -100 35 -103 51 -116 99 -82 19 13 22
22 17 47 -4 18 -15 41 -25 52 -9 11 -25 34 -36 52 -21 38 -34 45 -57 31z"/>
<path d="M2254 2928 c-9 -18 -25 -44 -35 -57 -35 -44 -20 -101 26 -101 24 0
45 32 73 112 22 61 16 78 -25 78 -15 0 -28 -10 -39 -32z"/>
<path d="M2001 2926 c-7 -8 -11 -27 -9 -43 2 -21 10 -29 37 -37 30 -8 36 -7
52 13 23 28 25 67 3 75 -28 11 -71 6 -83 -8z"/>
<path d="M1594 2920 c-29 -11 -35 -33 -18 -59 18 -25 53 -27 94 -6 69 36 -2
95 -76 65z"/>
<path d="M2946 2913 c-2 -10 -7 -32 -11 -49 -8 -41 -37 -66 -88 -79 -82 -20
-71 -66 19 -80 39 -5 47 -11 59 -41 8 -19 22 -50 30 -69 8 -19 19 -35 25 -35
6 0 22 26 36 58 31 69 50 92 78 92 57 0 90 65 39 75 -94 20 -102 24 -108 63
-10 62 -22 82 -49 82 -15 0 -27 -7 -30 -17z"/>
<path d="M1263 2760 c-44 -26 -56 -52 -41 -84 15 -35 32 -33 79 12 37 34 39
40 30 65 -12 32 -25 34 -68 7z"/>
<path d="M1106 2639 c-32 -25 -33 -49 -3 -77 28 -27 58 -28 80 -4 21 23 22 51
1 80 -19 28 -44 28 -78 1z"/>
<path d="M900 2441 c-17 -32 -12 -49 23 -74 50 -38 73 -42 91 -15 26 36 20 66
-16 88 -42 26 -84 26 -98 1z"/>
<path d="M2788 2438 c-21 -7 -28 -16 -28 -37 0 -36 17 -51 56 -51 60 0 80 70
27 91 -13 5 -25 9 -26 8 -1 0 -14 -5 -29 -11z"/>
<path d="M2853 2303 c-16 -6 -16 -35 -2 -85 9 -33 14 -38 39 -38 17 0 30 1 30
3 0 2 -7 26 -15 54 -16 53 -32 73 -52 66z"/>
<path d="M896 2278 c-8 -13 -17 -38 -21 -56 -6 -28 -3 -33 17 -41 13 -5 26 -6
29 -2 12 12 39 103 33 112 -10 17 -44 9 -58 -13z"/>
<path d="M792 2158 c-7 -7 -12 -22 -12 -35 0 -27 33 -44 94 -46 37 -2 40 0 48
31 6 23 5 38 -3 48 -14 17 -110 19 -127 2z"/>
<path d="M2854 2136 c-11 -46 -2 -61 40 -64 21 -2 51 2 67 9 60 24 19 79 -58
79 -37 0 -43 -3 -49 -24z"/>
<path d="M815 1965 c-6 -48 -2 -121 7 -130 2 -2 17 -5 33 -7 l30 -3 0 95 0 95
-32 3 c-31 3 -31 3 -38 -53z"/>
<path d="M572 1525 c-31 -67 13 -78 314 -73 266 3 277 6 272 62 l-3 31 -286 3
-286 2 -11 -25z"/>
<path d="M2686 1534 c-22 -22 -20 -50 6 -68 19 -13 58 -16 225 -16 190 0 204
1 223 20 23 23 26 50 8 68 -9 9 -74 12 -229 12 -184 0 -220 -2 -233 -16z"/>
<path d="M2695 1304 c-9 -9 -15 -26 -13 -37 5 -38 43 -47 194 -47 124 0 143 2
157 18 20 22 22 53 5 70 -8 8 -60 12 -169 12 -132 0 -160 -3 -174 -16z"/>
<path d="M2655 1094 c-10 -10 -13 -24 -9 -38 13 -41 24 -46 109 -46 67 0 85 3
98 18 20 22 22 53 5 70 -19 19 -183 16 -203 -4z"/>
<path d="M2995 658 c-2 -13 -6 -34 -7 -47 -2 -19 -12 -26 -51 -36 -27 -7 -53
-17 -60 -24 -19 -19 5 -44 51 -56 33 -8 46 -17 60 -45 23 -47 51 -47 74 1 13
27 26 38 58 48 22 7 44 19 47 28 9 22 -32 53 -68 53 -26 0 -29 3 -35 50 -6 47
-8 50 -35 50 -22 0 -30 -6 -34 -22z"/>
<path d="M655 618 c-2 -7 -5 -24 -7 -38 -2 -19 -12 -27 -42 -35 -51 -15 -69
-40 -42 -61 11 -8 27 -14 37 -14 20 0 34 -16 44 -50 16 -53 50 -53 73 0 12 28
30 48 56 63 22 12 39 27 40 32 1 6 -18 19 -41 30 -34 15 -43 25 -45 50 -3 26
-7 30 -36 33 -20 2 -34 -2 -37 -10z"/>
</g>
</svg>
