<?xml version="1.0" encoding="iso-8859-1"?>
<!-- Generator: Adobe Illustrator 19.0.0, SVG Export Plug-In . SVG Version: 6.00 Build 0)  -->
<svg version="1.1" id="Layer_1" xmlns="http://www.w3.org/2000/svg" xmlns:xlink="http://www.w3.org/1999/xlink" x="0px" y="0px"
	 viewBox="0 0 462.86 462.86" style="enable-background:new 0 0 462.86 462.86;" xml:space="preserve">
<g>
	<g>
		<path d="M461.952,382.98L461.952,382.98l-57.1-218.9c-1.7-6.7-5.8-12.4-11.7-15.9c-6.3-3.8-13.9-4.8-21.4-2.9
			c-0.1,0-0.2,0.1-0.3,0.1l-14.9,4.4l-13.8-17.1c2.4-4,3.7-8.7,3.7-13.6c0-15.8-12.3-28.7-27.3-28.7c-0.7,0-1.4,0-2.1,0.1
			c0.1-1.1,0.2-2.3,0.2-3.5c0-15.4-12.3-28-27.3-28c-2.6,0-5.2,0.3-7.6,1c-2.1-13.6-13.8-23.7-28.3-23.7c-9.4,0-17.7,4.9-22.6,12.3
			c-4.9-7.4-13.2-12.3-22.6-12.3c-14.6,0-26.3,10.1-28.3,23.7c-2.4-0.6-4.9-1-7.6-1c-15.1,0-27.3,12.6-27.3,28
			c0,1.2,0.1,2.3,0.2,3.5c-0.7,0-1.4-0.1-2.1-0.1c-15.1,0-27.3,12.9-27.3,28.7c0,5.1,1.5,9.9,4,14l-16.8,15.9l-12.2-3.6
			c-0.1,0-0.2-0.1-0.3-0.1c-7.5-1.9-15.1-0.8-21.4,2.9c-5.9,3.5-10,9.2-11.7,15.8l-57.1,219c-1.9,6.6-0.9,13.8,2.5,19.8
			c3.5,6,9.2,10.3,16,12.1l37.1,10.7c0.1,0,0.2,0,0.2,0.1c2.4,0.6,4.9,0.9,7.3,0.9c5,0,9.8-1.3,14-3.8c5.9-3.5,10-9.2,11.7-15.8
			l57.1-219c1.7-6.2,0.8-12.9-2.6-18.8c-3.7-6.4-10-11.2-17.2-13.1l-6.9-2.1l11.1-10.5c3.7,2,8,3.1,12.4,3.1
			c15.8,0,28.7-12.3,28.7-27.3c0-1.4-0.1-2.7-0.3-4.1c0.3,0,0.6,0,0.9,0c14.6,0,26.3-10.1,28.3-23.7c2.4,0.6,4.9,1,7.6,1
			c9.4,0,17.7-4.9,22.6-12.3c4.9,7.4,13.2,12.3,22.6,12.3c2.6,0,5.2-0.3,7.6-1c2.1,13.6,13.8,23.7,28.3,23.7c0.3,0,0.6,0,0.9,0
			c-0.2,1.3-0.3,2.7-0.3,4.1c0,15.1,12.9,27.3,28.7,27.3c4.6,0,8.9-1.2,12.8-3.3l9.1,11.2l-5.3,1.6c-7.2,1.9-13.5,6.6-17.2,13.1
			c-3.4,5.9-4.4,12.6-2.6,18.8l57.1,218.9c1.7,6.7,5.8,12.4,11.7,15.9c4.2,2.5,9.1,3.8,14,3.8c2.4,0,4.9-0.3,7.3-0.9
			c0.1,0,0.2,0,0.2-0.1l37.1-10.7c6.8-1.8,12.5-6,16-12.1C462.852,396.78,463.752,389.58,461.952,382.98z M75.152,403.18
			c-0.7,2.9-2.4,5.2-4.8,6.7c-2.8,1.7-6.4,2.1-9.9,1.3l-37.1-10.7c-0.1,0-0.2,0-0.2-0.1c-3.8-0.9-5.8-3.3-6.8-5.1
			c-1.5-2.5-1.9-5.6-1.1-8.3c0-0.1,0-0.1,0-0.2l2.7-10.4l64.1,0.1L75.152,403.18z M86.052,361.48l-64.1-0.1l9-34.4h64.1
			L86.052,361.48z M99.052,311.98c0,0-64.2,0-64.2,0l13.2-50.6l57.3,26.3L99.052,311.98z M109.252,273.08l-57.4-26.4h0l5.2-19.8
			h64.2L109.252,273.08z M122.752,170.38c0.2,0.1,0.3,0.1,0.4,0.1v0c3.4,0.9,6.3,3.1,8.1,6.1c1.4,2.4,1.8,5,1.2,7.3
			c0,0.1,0,0.1,0,0.2l-7.3,27.8h-64.2l11.5-44.1c0.7-2.9,2.4-5.2,4.8-6.7c2.8-1.7,6.3-2.1,9.8-1.3L122.752,170.38z M143.652,131.48
			c-6.5,0-12.3-5.9-12.3-12.3c0-7.4,5.7-13.7,12.3-13.7c7.8,0,13.7,5.9,13.7,13.7C157.252,125.88,151.052,131.48,143.652,131.48z
			 M172.852,100.08c-6.7,0-12.3-6-12.3-13s5.7-13,12.3-13c7.8,0,13.7,5.6,13.7,13S180.652,100.08,172.852,100.08z M208.752,77.38
			c-7.8,0-13.7-5.6-13.7-13s5.9-13,13.7-13c6.7,0,12.3,6,12.3,13C221.052,71.48,215.452,77.38,208.752,77.38z M253.952,77.38
			c-6.7,0-12.3-5.9-12.3-13c0-7,5.7-13,12.3-13c7.8,0,13.7,5.6,13.7,13S261.752,77.38,253.952,77.38z M289.852,100.08
			c-7.8,0-13.7-5.6-13.7-13s5.9-13,13.7-13c6.7,0,12.3,6,12.3,13S296.452,100.08,289.852,100.08z M319.152,131.48
			c-7.5,0-13.7-5.6-13.7-12.3c0-7.8,5.9-13.7,13.7-13.7c6.7,0,12.3,6.3,12.3,13.7C331.452,125.68,325.552,131.48,319.152,131.48z
			 M330.252,183.98c0.1,0,0.1,0,0-0.1v0c-0.7-2.3-0.2-4.9,1.2-7.3c1.7-3,4.7-5.2,8.1-6.1c0.1,0,0.2-0.1,0.3-0.1l35.7-10.6
			c3.5-0.8,7.1-0.4,9.8,1.3c2.4,1.5,4.1,3.8,4.9,6.7l11.5,44h-64.2L330.252,183.98z M341.452,226.88h64.2l5.2,19.9l-57.3,26.3
			L341.452,226.88z M357.452,287.78l57.3-26.3l13.2,50.5h-64.2L357.452,287.78z M367.752,326.98h64.1l9,34.4l-64.1,0.1
			L367.752,326.98z M446.352,395.28L446.352,395.28c-1,1.8-3.1,4.1-6.8,5.1c-0.1,0-0.2,0-0.2,0.1l-37.1,10.6
			c-3.5,0.9-7.1,0.4-9.9-1.3c-2.4-1.5-4.1-3.8-4.9-6.7l-6.9-26.6l64.1-0.1l2.7,10.4c0,0.1,0,0.1,0,0.2
			C448.252,389.78,447.852,392.78,446.352,395.28z"/>
	</g>
</g>
<g>
</g>
<g>
</g>
<g>
</g>
<g>
</g>
<g>
</g>
<g>
</g>
<g>
</g>
<g>
</g>
<g>
</g>
<g>
</g>
<g>
</g>
<g>
</g>
<g>
</g>
<g>
</g>
<g>
</g>
</svg>
